<?xml version="1.0" encoding="utf-8"?>
<!-- Generator: Adobe Illustrator 25.4.1, SVG Export Plug-In . SVG Version: 6.00 Build 0)  -->
<svg version="1.1" id="Layer_1" xmlns="http://www.w3.org/2000/svg" xmlns:xlink="http://www.w3.org/1999/xlink" x="0px" y="0px"
	 viewBox="0 0 595.28 841.89" style="enable-background:new 0 0 595.28 841.89;" xml:space="preserve">
<style type="text/css">
	.st0{fill:#FAD9C9;}
	.st1{fill:none;}
	.st2{fill-rule:evenodd;clip-rule:evenodd;fill:#FAD9C9;}
	.st3{fill:#452712;}
</style>
<g>
	<polygon class="st0" points="93.06,427.58 126.65,333.81 205.63,302.36 232.07,303.34 359.08,331.05 410.09,399.32 383.94,504.21 
		304.74,536.9 143.76,496.63 	"/>
	<g>
		<polygon class="st1" points="60.29,451.64 119.67,532.51 307.86,579.6 418.42,533.97 454.21,390.44 382.57,294.56 237.2,262.84 
			198.57,261.4 94.56,302.82 54.78,413.87 131.34,441.29 158.74,364.79 212.7,343.31 226.94,343.84 335.59,367.54 365.97,408.2 
			349.45,474.46 301.61,494.21 167.86,460.74 125.84,403.51 		"/>
		<path class="st2" d="M86.05,432.79c0.42-0.57,0.9-0.22,1.34-0.35c0.22,0.77,0.56,1.58-0.14,2
			C86.85,433.88,86.45,433.33,86.05,432.79z"/>
		<path class="st2" d="M102.92,499.89c1.53,1.87,0.49,2.73,1.67,4.45c0.42,0.87,0.8,1.1,1.17,1.18c0.18,0.04,0.37,0.05,0.55,0.08
			c0.09,0.01,0.18,0.04,0.28,0.07c0.09,0.03,0.27,0.19,0.41,0.32c5.01,7.7,10.33,15.25,15.58,22.2c5.59,1.32,11.09,2.49,16.38,3.49
			c2.65,0.5,5.24,0.96,7.77,1.37c0.63,0.1,1.26,0.2,1.89,0.3l0.93,0.14c0.27,0.04,0.37,0.03,0.56,0.05
			c0.68,0.04,1.36,0.08,2.03,0.11c-0.4,0.61,0.56,0.77,1.33,1c-0.44,1.38-1.45,2.16-2.76,2.63l-1.06-0.15l-0.53-0.08
			c-0.18-0.03-0.3-0.04-0.7-0.12c-1.34-0.27-2.68-0.54-4.01-0.8c-2.68-0.56-5.33-1.11-7.97-1.66c-5.32-1.15-10.57-2.28-15.8-3.41
			c-3.17-4.03-6.36-8.06-9.64-12.09c-1.66-2.02-3.33-4.04-5-6.07c-0.86-1.01-1.71-2.03-2.57-3.05l-0.65-0.76l-0.31-0.37l-0.18-0.18
			l-0.73-0.72C105.06,506.38,99.99,501.58,102.92,499.89z"/>
		<path class="st2" d="M227.35,557.79c0.58,0.76,2.43,1.11,2.08,2.18C228.03,559.48,227.34,558.75,227.35,557.79z"/>
		<path class="st2" d="M256.08,484.87c2.11,0.02,6.32,0.93,6.75,2.35c3.03-0.37,5.96-0.85,10.41,0.28c0.25,0.68,0.54,1.35,0.52,2.12
			C268.18,490.76,255.39,491.59,256.08,484.87z"/>
		<path class="st2" d="M349.81,548.33c-2.11,0.53,1.32-1.49-0.37-0.89c0.06-0.81,2.62-1.25,2.59-0.37
			C351.42,547.51,349.46,547.72,349.81,548.33z"/>
		<path class="st2" d="M415.33,509.06c-0.83-0.16-1.18-0.99-0.53-3.21C415.64,505.99,416,506.79,415.33,509.06z"/>
		<path class="st2" d="M427.56,414.69c1.13-2.16,1.12-3.18,1.12-3.96c0-0.79,0.01-1.34,1.22-2.74c0.37-4.01,1.52-8.56,2.81-13.23
			c-2.79-3.94-5.51-7.98-8.27-11.32c-2.71-3.29-5.94-5.85-8.72-8.98c-0.66-0.75-1.32-1.51-1.99-2.27c-0.48-0.53-0.96-1.07-1.44-1.6
			c-0.96-1.08-1.9-2.19-2.84-3.32c-1.87-2.26-3.7-4.6-5.5-6.97c-3.6-4.74-7.08-9.57-10.54-14.07c-1.99-2.59-4.05-5.2-5.93-7.78
			c-0.94-1.29-1.83-2.58-2.64-3.86c-0.41-0.64-0.79-1.28-1.16-1.91c-0.47-0.81-0.93-1.61-1.38-2.38c0.96,0.26,2.09,0.95,2.79,1.2
			c0.78,0.37,1.54,0.87,2.28,1.46c1.47,1.19,2.85,2.76,4.15,4.49c2.6,3.48,4.88,7.63,6.96,10.71c1.08,1.02,2.13,1.68,3.16,2.08
			c4.81,7.23,10.01,12.81,14.83,18.16l0.9,1l0.23,0.26l0.34,0.41l0.68,0.81c0.9,1.09,1.79,2.17,2.68,3.25
			c1.77,2.17,3.52,4.35,5.21,6.55c3.38,4.4,6.55,8.9,9.27,13.48c-0.91,2.56-1.91,5.13-3.01,7.7c-0.12,4.08-1.76,7.67-2.09,12.38
			c-0.32,0.68-0.63,1.36-1.03,1.48C428.91,416.74,428.11,415.34,427.56,414.69z"/>
		<path class="st2" d="M386.2,348.43c-1.37-1.08-3.7-3.81-2.27-4.65c-1.87-1-2.2-3.42-3.96-5.29c-0.29-0.65-0.59-1.3-0.91-1.95
			c-0.16-0.33-0.32-0.65-0.49-0.98c-0.23-0.41-0.46-0.83-0.7-1.24c-0.98-1.7-2.03-3.45-3.14-5.23c-2.22-3.56-4.68-7.26-7.28-11.05
			c-3.38-0.89-6.89-1.78-10.48-2.67c-1.8-0.45-3.61-0.9-5.43-1.35c-0.91-0.23-1.83-0.46-2.75-0.69l-1.36-0.34l-1-0.27
			c-5.36-1.43-10.77-2.96-16-4.77c-0.34-1.61,1.41-1.16,2.4-1.46c3.4,1.22,6.53,1.46,9.61,1.75c1.54,0.15,3.07,0.3,4.62,0.6
			c0.39,0.07,0.77,0.16,1.16,0.25c0.48,0.12,1.13,0.28,1.68,0.43c1.16,0.32,2.33,0.69,3.51,1.12c5.52,0.36,11.23,1.8,16.52,3.52
			c2.19,3.58,4.22,7.24,6.15,10.68c0.96,1.72,1.9,3.39,2.83,4.99c0.47,0.79,0.94,1.57,1.39,2.33c0.41,0.67,0.82,1.32,1.22,1.97
			c0.75,3.47,3.78,8.74,7.28,12.97C388.8,347.78,387.12,348.41,386.2,348.43z"/>
		<path class="st2" d="M341.99,317.06c-0.07,0.32-0.14,0.63-0.21,0.95c-4.42-0.18-8.27-2.3-12.49-2.39
			c1.01-1.17,3.54-0.84,5.02-1.54C337.34,315.2,339.85,315.28,341.99,317.06z"/>
		<path class="st2" d="M329.17,306.67c0.03,1.61-4.62,0.04-5.6-0.56C325.48,305.49,327.06,306.84,329.17,306.67z"/>
		<path class="st2" d="M225.12,284.01c-0.69,1.15-4.06,3.7-6.17,1.71c-0.95,0.39-1.93,0.67-2.93,0.87
			c-0.25,0.04-0.51,0.09-0.76,0.13l-0.38,0.06c-0.12,0.02-0.34,0.03-0.51,0.04c-0.72,0.05-1.44,0.09-2.18,0.12
			c-2.93,0.1-6.01,0.02-9.22,0.02c-1.89,0.84-3.83,1.73-5.76,2.75c0.27-1.52-3.89,0.35-4.75,1.2c0.64,0.91,2.24-1.82,2.17-0.17
			c-0.64,0.34-1.29,0.66-1.93,0.96c-0.52,0.24-1.03,0.48-1.53,0.72c-0.94,0.41-1.86,0.81-2.74,1.19c-1.76,0.76-3.35,1.49-4.5,2.43
			c-0.33-0.43,0.24-0.7,0.11-1.09c-0.21-0.32-0.96,0.09-1.53,0.26c-0.07-0.65,3.95-2.09,2.48-0.64c0.86-0.3,0.85-0.76,1.77-1.06
			c-1.93,0.29-0.11-1.92-2.96-0.55c-0.07-0.47,1.37-0.67,1.18-1.16c0.94-0.06,1.29,0.71,2.01,0.93c0.6-0.58,2.36-1.31,3.73-2
			c0.36-0.18,0.63-0.33,0.96-0.52c0.38-0.21,0.7-0.41,0.92-0.59c0.44-0.36,0.48-0.65-0.16-0.8c1.03-0.89,2.97-1.27,4.94-1.61
			c1.97-0.35,3.96-0.67,5.37-1.54c0.52-0.08,0.96-0.24,1.32-0.51c2.27,0.21,4.24,0.25,6.14,0.18c0.95-0.03,1.88-0.09,2.81-0.16
			c0.9-0.07,1.99-0.15,2.53-0.26C218.22,284.52,221.11,284.02,225.12,284.01z"/>
		<path class="st2" d="M182.05,296.79c-1.05,0.16-2.29-0.14-1.54-1.12C181.56,295.3,181.82,296.02,182.05,296.79z"/>
		<path class="st2" d="M179.1,299c-1.43,0.73-1.57-0.31-2.72,0.04C176.75,297.97,179.02,298.14,179.1,299z"/>
		<path class="st2" d="M171.65,299.54c0.24,1.21-2.73,0.96-4.01,2.29C167.4,300.78,170.17,300.28,171.65,299.54z"/>
		<path class="st2" d="M164.8,302.96c-0.61,0.81-0.67,1.72-2.36,2.33C162.68,304.41,163.44,303.63,164.8,302.96z"/>
		<path class="st2" d="M100.72,324.82c-1.14,2.44-2.28,3.71-3.42,3.81C98.46,327.56,99.62,324.35,100.72,324.82z"/>
		<path class="st2" d="M211.72,334.5c0.24,0.2,0.49,0.41,0.74,0.62c0.12,0.09,0.23,0.18,0.34,0.25l0.16,0.1
			c0.02,0.01,0.01,0.01,0.06,0.02l0.21,0.03l0.42,0.05c2.23,0.24,4.44,0.19,6.53-0.42c1.67,0.26,3.41,0.53,5.2,0.81
			c0.45,0.07,0.89,0.14,1.34,0.22l0.34,0.05l0.17,0.03c0.02,0.01,0.02,0.02,0.03,0.02l0.12,0.09l0.47,0.33l0.39,0.36l0.09,0.08
			l0.05,0.04c0.01,0.01,0.01,0.01,0.03,0.02l0.15,0.05l1.22,0.37c1.62,0.48,3.26,0.93,4.88,1.32c3.26,0.77,6.5,1.3,9.62,1.39
			c3.03,1.85,7.03,1.58,10.29,2.91c15.53,6.28,33.02,6.51,49.65,6.21c1.16,0.25,2.32,0.51,3.48,0.76c5,0.14,10.11-0.64,15.66-0.21
			c4.8,0.37,9.86,1.32,14.96,2.54l0.48,0.12l0.21,0.06l0.35,0.11l0.7,0.23c0.46,0.16,0.92,0.33,1.36,0.51
			c0.88,0.36,1.71,0.74,2.48,1.11c0.31,0.67,0.62,1.33,0.92,1.98c-0.33,0.41-0.75,0.86-0.45,1.02c0.14,0.52,0.24,1.04,0.32,1.56
			c0.04,0.26,0.07,0.51,0.09,0.76l0.03,0.37l0.01,0.18l0,0.09c0,0.02,0,0.03,0,0.05l0.06,0.12c1.24,2.6,2.49,5.2,3.74,7.82
			c2.54,5.2,5.28,10.36,8.9,15.25c1.77,2.38,4.3,3.98,5.18,6.93c2.69,1.85,5.45,4.62,8.2,7.2c0.44,0.76,0.93,1.56,1.48,2.37
			c0.28,0.4,0.56,0.82,0.85,1.24c0.21,0.29,0.43,0.6,0.65,0.9c0.31,0.4,0.71,0.77,1.24,1.1c1.04,0.66,2.55,1.26,4.46,1.69
			c-0.01,0.07-0.02,0.13-0.02,0.19c-0.47,0.63-0.42,1.1-0.29,1.63c0.13,0.52,0.35,1.09,0.26,1.7c-0.07,0.46-0.15,0.92-0.22,1.39
			c-0.04,0.24-0.08,0.48-0.13,0.72l-0.07,0.37l-0.04,0.19l-0.13,0.55c-0.69,2.96-1.39,5.99-2.11,9.09
			c-1.48,6.18-3.02,12.59-4.56,19.01c-3.11,12.84-6.25,25.73-8.8,37.05c0.07,0.29,0.12,0.57,0.15,0.83
			c0.07,0.11,0.12,0.21,0.16,0.32c0.08,0.2,0.1,0.39,0.11,0.58c0.01,0.38-0.03,0.75,0.16,1.31c-1.21,1.09-1.58,3.03-1.63,5.44
			c-1.01,0.82-1.92,1.83-2.6,2.76c-1.2-0.36-2.15-0.09-3.16,0.31c-0.72,0.28-1.46,0.58-2.21,0.88c-1.35,0.52-2.73,0.99-4.11,1.34
			c-4.33,1.08-8.74,0.84-11.18,3.57c-9.46,3.1-18.52,8.69-29.64,10.83l-1.7,0.3l-0.86,0.14l-0.43,0.07c-0.09,0.02-0.12,0.01-0.14,0
			l-0.08-0.02c-0.43-0.13-0.84-0.29-1.23-0.45c-0.78-0.32-1.46-0.67-2.05-0.84c-0.2,0.16-0.41,0.3-0.61,0.42
			c-0.65-0.06-1.3-0.26-1.95-0.4c-0.33-0.07-0.66-0.13-1.01-0.16l-0.26-0.01l-0.07,0l-0.03,0l-0.12-0.02l-0.51-0.09
			c-0.68-0.12-1.36-0.22-2.05-0.31c-0.17,0.35-0.14,0.91-0.73,0.81c-3.53-1.49-10.01-0.33-14.54-2.64
			c-8.24,0.2-15.92,2.18-28.38-1.78c-5.78,1.98-16.35-1.85-23.56-2.24c-5.14-1.88-13.67-4.48-16.9-7.88
			c-3.31-1.2-6.32-2.5-10.7-3.34c-1.2-0.66-1.55-1.59-3.14-2.12c-0.82,0.33-1.9,0.37-3.2,0.2c-6.73-3.95-18.44-6.72-27.46-7.54
			c-0.35-0.72-1.19-0.86-2.06-1c-0.43-0.07-0.87-0.15-1.25-0.29c-0.09-0.04-0.19-0.08-0.27-0.13c-0.1-0.05-0.17-0.1-0.17-0.15
			c-0.05-0.1-0.08-0.22-0.09-0.39c-1.79,0.07-3.87,0.26-6.18,0.32c-0.88-0.6-1.8-1.3-2.7-2.09c-0.45-0.4-0.89-0.82-1.32-1.27
			c-0.21-0.22-0.43-0.45-0.63-0.68l-0.08-0.09l-0.15-0.19l-0.32-0.41l-0.63-0.81c-3.33-4.36-6.24-9.01-8.33-14.09
			c1.69-4.36,0.84-9.01,3.8-12.25c-0.2-1.44-1.42-3.28-0.85-4.43c0.96-0.4,0.59-1.33,0.96-1.96c-1.3-4.66-4.66-13.1-9.54-15.71
			c-3.99-0.14-8.35-0.7-8.7,4.5c-5.73,3.51-8.36,13.21-16.91,4.21c-3.53,0.21-6.3-0.38-9.08,2.89c0.27,3.57-1.16,6.55,0.22,11.19
			c-1.06-0.4-0.69,0.43-1.3,0.95c1.06,1.88,3.33,4.23,2.27,5.28c-2.87-4.58-5.35-3.64-8.1-6.67c-5.13-1.85-8.16,2.52-12.19,1.38
			c-0.45-1.31-0.34-1.65-1.55-2.65c-2.25,0.58-1.64,2.52-4.28,1.25c-0.52,1.51,0.41,2.46,1.37,4.04c-1.88,3.26,0.32,8.12,1.68,12.64
			c7.76,10.64,9.45,20.14,16.7,28.74c-1.44,1.45,1.17,4.64,3.13,5.9c-0.09,1.23-1.86,1.8-1.14,3.36c1.55,0.61,0.82-1.17,1.52-1.75
			c1.68,1.09,4.65,4.3,4.77,5.96c0.42,0.22,0.83,0.51,1.25,0.84c0.21,0.17,0.42,0.34,0.63,0.53c0.04,0.03,0.12,0.12,0.22,0.22
			l0.26,0.28c0.17,0.19,0.35,0.39,0.52,0.58c1.39,1.57,2.84,3.34,4.32,5.14c2.94,3.6,5.99,7.35,8.76,9.77
			c0.39,1.53,1.03,3.23,1.99,5.17c2.01,0.98,4.75,1.95,8.21,2.88c0.66-1.01,2.33-1.31,3.83-1.7c4.36,0.61,8.01,1.41,11.4,2.33
			c0.84,0.24,1.67,0.48,2.49,0.71l0.3,0.09l0.17,0.06l0.34,0.12l0.68,0.24c0.9,0.33,1.77,0.67,2.64,1.01
			c3.48,1.37,6.93,2.71,11.75,2.89c2.27,1.54,6.09,2.57,10.12,3.53c9.12,6.23,24.06,10.22,37.18,10.63
			c2.65,4.09,8.71,3.39,12.85,5.21c6.57,2.89,12.69,7.42,20.17,7.37c0.81,0.2,0.49-0.8,1.22-0.69c5.08,1.59,12.08,2.35,17.91,3.82
			c4.16,1.04,7.87,3.24,12.18,3.71c1.25,0.14,2.44,0.21,3.57,0.22c0.57,0,1.12-0.01,1.66-0.04c0.09-0.02,0.38,0.01,0.61,0.03
			c0.24,0.02,0.48,0.03,0.71,0.04c0.47,0.02,0.93,0.04,1.39,0.06c3.64,0.12,6.78-0.17,9.46-0.95c3.82,1.03,7.94,0.82,11.83,1.04
			c2.82-1.76,5.56-3.19,8.41-3.55c1.14-0.88,0.68-1.73,2.94-2.61c1.55-0.74,1.7-0.23,2.58-0.37c-0.41-1.13-1.14-0.52-0.54-1.87
			c-4.25,2.41-6.36,3.15-9.98,5.86c-1.1,0.35-1.58,0.15-3.24,0.99c-0.09,0.06-0.17,0.11-0.27,0.18c-4.44-0.09-9.47-0.24-15.1-0.66
			c-1.41-0.1-2.85-0.22-4.33-0.36c-0.74-0.07-1.49-0.15-2.25-0.22l-1.14-0.12l-0.29-0.03c-0.08-0.01-0.12,0-0.18,0l-0.33,0
			c-1.75-0.02-3.55-0.1-5.38-0.26c-7.13-0.63-13.9-3.89-19.14-3.13c-1.1-0.4-0.34-1.42-1.09-1.93c-2.84,0.45-4.74-1.59-7.89-1.97
			c-2.22-0.27-4.41,0.79-6.88,0.27c-5.01-1.05-7.77-3.26-13.5-4.71c-1.84-2.68-7.84-2.77-7.68-4.91c1.37-0.8,3.17,2.16,4.93,1.23
			c-0.9-0.56-1.97-1.07-2.15-1.87c5.58-0.85,8.5-4.5,15.2-4.17c5.26,1.58,9.29,1.86,12.73,1.52c6.66,2.46,14.55,4.73,22.73,6.69
			c2.05,0.49,4.11,0.96,6.18,1.41c2.26,0.47,4.53,0.95,6.77,1.42c6.28,1.35,12.42,2.57,18.19,3.64c5.6-2.71,10.78-5.32,15.42-7.77
			c1.38-0.37,2.7-0.72,4.01-1.07c1-0.27,1.98-0.59,2.96-0.97c1.97-0.75,3.97-1.74,6.26-3.07c7.25,1.63,18.66-9.09,24.94-8.89
			c1.16-4.02,9.56-5.78,12.69-5.24c0.01-0.15,0.03-0.3,0.06-0.44c0.03-0.14,0.07-0.27,0.21-0.43c0.22-0.3,0.52-0.58,0.86-0.84
			c0.69-0.52,1.59-0.98,2.6-1.38c2.01-0.8,4.47-1.39,6.42-1.8c0.28,0.39-2.46,2.12,0.53,0.83c1.46-0.5,1.17-0.96,1.77-1.43
			c1.69,0.07,3.73-0.2,4.99,0.38c2.88-0.94,2.78-1.74,5.64-2.68c-0.27,0.8-0.28,1.6-1.82,2.5c-3.75,2.02-4.99,1.4-7.31,1.97
			c0.56,0.64,2.03,0.25,0,1.4c-1.08-0.64-2.19-0.05-3.42,0.62c-1.23,0.67-2.59,1.43-3.96,1.03c1.35-0.61,2.36-1.21,2.63-1.78
			c-1.37,0.72-2.87,1.52-4.32,2.29c-0.73,0.4-1.46,0.78-2.15,1.16c-0.35,0.19-0.68,0.37-1.01,0.55c-0.15,0.08-0.36,0.19-0.45,0.25
			c-0.1,0.06-0.19,0.12-0.28,0.18c0.13-0.06,0.25-0.1,0.41-0.15c0.2-0.07,0.39-0.12,0.51-0.13c0.25-0.04,0.28,0.04-0.27,0.36
			c10.94-2.93,21.67-6.68,31.88-10.7c2.15-8.04,4.05-16.23,5.87-24.44c0.45-2.05,0.9-4.11,1.35-6.17l0.34-1.55l0.16-0.74l0.09-0.48
			c0.12-0.64,0.25-1.28,0.37-1.92c0.51-2.56,1.02-5.15,1.54-7.79c1-0.74,1.66-2.5,2.36-4.13c0.43-5.17,1.33-8.71-1.61-10.88
			c-1.42,5.98-1.91,10.86-4.42,20.39c-1.32,1.77-2.82,3.03-4.74,3.01c0.72-7.96,4.96-15.63,5.78-23.19
			c0.12-1.08-0.22-1.62-0.01-2.62c1.3-6.17,2.84-9.04,4.26-13.09c2.75-7.84,4.24-16.63,6.78-24.52c0.14-0.43,0.36-0.85,0.61-1.26
			l0.37-0.61l0.18-0.31c0.06-0.12,0.14-0.31,0.21-0.47c0.56-1.3,0.96-2.69,0.67-4.24c-0.3,0.8-0.6,1.6-0.91,2.42
			c-0.28,0.77-0.55,1.54-0.83,2.31c-0.42,1.08-0.8,2.16-1.13,3.22c-0.66,2.11-1.1,4.12-1.22,5.77c-2.2,4.25-4.53,11.94-5.99,17.37
			c-5.3,10.17-5.35,18.76-9.87,31.6c-1.83,0.25-1.9,1.92-2.67,4.05c-0.92-0.31-1.66-0.1-2.28,0.49c-0.62,0.61-1.08,1.43-1.61,3.11
			c0.02,1.92,1.55-0.76,1.39,1.1c-1.03,1.71-2.06,3.22-3.41,3c0.42-1.66,0.77-3.59,1.4-4.28c-1.62,0.17-2.41,3.93-4.13,3.24
			c0.27-1.5,0.49-2.98,0.69-4.43l0.14-1.09l0.1-0.95c0.06-0.61,0.11-1.22,0.17-1.83c0.2-2.44,0.4-4.84,0.59-7.23
			c0.43-4.78,1.07-9.48,2.73-14.19c1.18-1.07,2.6-1.39,3.68-2.75c-1.05-1.36-2.69,2.01-4.18,2.1c-0.26-3.13,0.86-7.59,0.27-10.41
			c0.61-0.47,1.5-0.08,1.74-1.66c3.07-9.05,2.9-15.71,4.1-23.09c1.43-8.93,4.53-17.53,6.61-27.23c-1.41-1.76-2.97-3.6-4.65-5.44
			c-0.26-0.75,1.63-0.46,0.31-1.74c-1.08-1.64-2.39-3.41-3.73-5.23c-0.66-0.91-1.33-1.84-2-2.75c-0.32-0.47-0.65-0.93-0.97-1.39
			c-0.29-0.44-0.58-0.89-0.87-1.32c-2.22-3.51-3.77-6.99-3.11-10.04c-2.16-2.38-1.69-3.75-2.62-5.66c-0.77-0.61-1.54-1.17-2.34-2.06
			c0.33-1.63-2.39-3.87-3.75-6.09c-1.51-2.47-1.64-5.23-3.06-7.87c-2.48-4.59-4.58-5.68-6.56-7.16c-1.22-0.91-2.54-2.2-3.9-3.29
			c-0.38-0.31-0.76-0.61-1.12-0.9c-0.39-0.29-0.77-0.56-1.15-0.79c-0.76-0.46-1.5-0.77-2.2-0.84c0.2,1.14,0.45,2.29,0.47,3.32
			c0.39,0.27,0.8,0.54,1.24,0.81c0.41,0.23,0.83,0.47,1.25,0.71c0.85,0.48,1.74,0.98,2.62,1.53c1.76,1.1,3.48,2.43,4.8,4.29
			c1.66,2.34,1.14,4.98,3.53,6.89l-0.77,0.58c5.18,5.87,7.2,11.54,9.15,17.18c0.98,2.82,1.94,5.64,3.27,8.47
			c0.67,1.42,1.43,2.84,2.32,4.26c0.88,1.4,1.89,2.78,3.1,4.21c0.99,3.8,1.4,7.13,0.88,9.81c-1.17-1.86-2.46-2.96-3.71-3.96
			c-1.25-1.01-2.46-1.94-3.61-3.68c-0.65-0.38-1.27-0.77-1.86-1.18c-0.29-0.21-0.58-0.41-0.87-0.62c-0.3-0.24-0.66-0.56-0.99-0.85
			c-1.33-1.19-2.61-2.49-3.85-3.88c-2.49-2.76-4.83-5.85-7.13-9.05c-4.59-6.38-9-13.17-14.03-18.57c-1.05-1.93-2.18-3.71-3.37-5.4
			c-0.59-0.84-1.21-1.67-1.83-2.47c-0.48-0.62-0.98-1.21-1.49-1.79c-2.02-2.33-4.13-4.38-6.14-6.5c-1.62-0.18-3.23-0.38-4.83-0.67
			c-0.16-0.97-1.26-1.57-2.63-2.06c-0.68-0.25-1.43-0.47-2.17-0.69c-0.37-0.12-0.74-0.24-1.11-0.35c-0.46-0.14-0.91-0.3-1.33-0.46
			c-1.06-0.02-0.49,1.56-2.26,0.83c-7.42-1.87-6.89-7.01-12.04-9.23c-0.93-0.4-2.76-0.24-4.05-0.55c-1.85-0.45-5.29-1.93-6.81-2.15
			c-5.51-0.78-11.04,0.27-16.95-1.06c-8.46-1.9-17.98-4.3-27.19-6.59c-7.13-3.7-19.18-3.91-28.47-7.86
			c-1.77,0.09-3.71-0.11-5.75-0.45c-1-0.17-2.1-0.39-3.08-0.6c-0.93-0.21-1.88-0.42-2.84-0.63l-1.85-0.08
			c-0.64-0.02-1.27-0.03-1.9-0.05c-1.38-0.02-2.74-0.01-4.05,0.07c-2.63,0.16-5.07,0.59-7.13,1.56c-1.34,0.05-0.35-1.26-2-1.04
			c-0.36,0.11-0.72,0.22-1.08,0.33c-0.33,0.1-0.67,0.18-1,0.25c-0.66,0.14-1.32,0.25-1.96,0.34c-1.28,0.19-2.51,0.35-3.53,0.71
			c-0.83,0.7-1.5,1.5-1.92,2.52c-0.82,0.44-1.41,0.51-1.92,0.42c-0.54,0.44-1.08,0.87-1.62,1.31c-0.22,0.2-0.63,0.48-0.98,0.73
			l-1.07,0.78c-1.43,1.04-2.88,2.1-4.34,3.16c-2.93,2.12-5.94,4.26-9.12,6.3c-6.36,4.1-13.4,7.86-21.81,10.5
			c-3.21-0.44-6.33-1.01-9.49-1.52c-1.58-0.26-3.16-0.51-4.77-0.72c-0.8-0.1-1.61-0.2-2.43-0.3c-0.41-0.04-0.82-0.08-1.23-0.13
			c-0.37-0.05-0.74-0.11-1.11-0.16c-5.35-2.04-11.75-4.05-21.52-2.09c-0.07,0.11-0.15,0.24-0.24,0.38
			c-0.89,5.47-0.74,10.45-0.03,14.48c0.35,2.03,0.84,3.83,1.38,5.42c0.26,0.82,0.57,1.48,0.81,2.3c0.25,0.78,0.49,1.54,0.72,2.26
			c-0.66,3.36,0.91,5.34,1.76,6.57c-1.11,7.97-2.15,14.42-4.21,22.26c-4.13,15.72-15.85,21.93-20.13,37.08
			c-0.53,0.53-1.16,0.65-1.6,1.59c1.57,1.57-3.55,5.36-0.88,7.25c2.88-1.78,6.13-6.78,7.49-11.36c2.28-0.89,2.24-3.91,3.62-6.27
			c1.73-2.96,4.84-4.98,6.43-7.42c0.46-0.7,0.21-1.75,0.38-2.02c1.18-1.98,3.08-3.27,4.22-6.05c2.54-6.2,2.68-8.34,4.06-14.21
			c1.4-5.95,2.88-11.9,3.4-17.12c0.26-2.61,0.29-5.04-0.05-7.19c-0.17-1.08-0.43-2.08-0.8-3.01c-0.37-0.93-0.84-1.8-1.49-2.41
			c0.63-1.68-0.02-3.25-0.83-5.01c-0.81-1.74-1.77-3.64-1.83-5.75c1.21-4.32,0.41-4.54,1.75-7.97c0.17-0.05,0.57-0.19,1.03-0.34
			c7.32,0.98,13.06,3.14,17.75,5.43c0.56,0.29,1.13,0.57,1.71,0.86c0.27,0.14,0.54,0.29,0.82,0.43c0.28,0.14,0.49,0.31,0.91,0.39
			c1.49,0.4,3.02,0.75,4.59,1.03c3.14,0.58,6.46,0.9,10.07,0.83c2.88-1.42,5.71-2.64,7.92-2.11c-3.88,3.31-9.67,6.06-16.12,8.65
			c-0.81,0.32-1.63,0.64-2.45,0.97l-0.8,0.3l-0.46,0.16c-0.63,0.21-1.26,0.42-1.89,0.64c-1.28,0.42-2.59,0.87-3.77,1.39
			c-0.4,1.24-0.7,2.53-0.76,3.79c-0.03,0.63,0,1.24,0.1,1.83c0.05,0.3,0.13,0.58,0.22,0.86c0.05,0.14,0.1,0.28,0.16,0.42l0.09,0.2
			c0.02,0.01,0.02,0.11,0.01,0.2l-0.01,0.26c0.13-0.07,0.25-0.14,0.36-0.22c0.12-0.09,0.17-0.04,0.25-0.07
			c0.14-0.02,0.25-0.06,0.33-0.1c0.17-0.09,0.25-0.21,0.29-0.36c0.07-0.29-0.03-0.69,0.08-0.99c0.41-1.11,0.87-2.23,1.35-3.42
			c1.13-0.4,2.29-0.81,3.45-1.28c0.76-0.32,1.53-0.64,2.31-0.97c2.07-0.86,4.17-1.75,6.28-2.67c7.65-3.33,13.79-9.13,22.55-12.1
			c5.12-1.73,9.46-2.18,15.12-4.63c0.39,0.39,1.59-0.33,1.42,0.82c1.37-0.68,2.79-1.08,4.23-1.33c0.72-0.12,1.45-0.21,2.18-0.28
			l1.09-0.09l0.54-0.04c0.12-0.02,0.13,0.01,0.16,0.03l0.09,0.05c1.02,0.56,1.76,1.23,2.28,0.74c0.21-0.09,0.4-0.33,0.61-0.78
			C211.69,333.86,211.41,333.83,211.72,334.5z M111.13,440.24c0.31,0.56-0.22,0.79-0.52,0.38c-0.26,0.29,0.33,0.91,0.64,1.42
			c-0.61,0.29-1.36-1.34-1.98-1.07c0.03,0.99,0.36,2.1,0.77,3.22C107.29,442.68,108.96,439.13,111.13,440.24z M122.33,472.39
			c-2.2,2.2-6.75-3.19-7.41-4.65c-0.67-1.48-1.06-4.52,0.83-3.77C117.85,464.81,119.48,470.77,122.33,472.39z M134.14,481.39
			c0.51-0.57,1.05-0.67,1.6-0.54c0.11,0.79,0.48,1.67,0.94,2.6c0.44,0.9,0.98,1.82,1.49,2.77c1.02,1.89,1.9,3.83,1.63,5.61
			c-1.33-2.12-2-3.61-2.7-5.12C136.4,485.21,135.67,483.69,134.14,481.39z M140.34,498.56c0.31-1.07,1.05,0.33,1.44-0.22
			c0.01,0.31,0.08,0.63,0.18,0.97c0.56,0.48,1.36,0.91,1.28,1.54c-1.02-0.12-1.48-0.36-1.9-0.61
			C141.11,499.71,140.91,499.2,140.34,498.56z M145.94,493.11c0.03,0.05,0.05,0.11,0.08,0.16c2.21,1.06,4.66,2.23,7.38,3.3
			c1.36,0.54,2.77,1.05,4.24,1.51c1.46,0.46,3.09,0.89,4.67,1.22c5.58,1.17,11.53-0.07,15.76,1.95c-5.39,0.65-13.18-1.21-17.87,0.18
			c-2.34-0.93-4.9-2.14-7.24-3.06c-2.37-0.92-4.6-1.55-6.74-1.44c0.3-1.1-0.91-1.79-0.77-2.8
			C145.51,493.77,145.67,493.43,145.94,493.11z M144.88,501.26c0.17-0.29,0.33-0.58,0.5-0.88c2.38,0.29,6.5,0.79,6.04,2.51
			C148.44,502.89,147.44,502.37,144.88,501.26z M151.61,503.94c0.54-0.16,0.85-0.54,1-1.08
			C155.05,503.28,153.96,504.99,151.61,503.94z M149.97,510.18c0.44,1.24,3.08,0.91,4.36,1.42c0.3,0.12,0.65,0.27,0.85,0.4
			c0.21,0.13,0.41,0.27,0.6,0.41c0.38,0.28,0.72,0.59,1.06,0.89c0.67,0.59,1.3,1.16,2.13,1.46c3.05,1.12,4.72-0.38,8.7,0.85
			c1.27,0.29,1.09-0.96,1.87-1.19c19.24,2.29,36.57,5.53,57.31,14c-1.67,2.93-7.68,0.1-8.06,4.96c-11.96-1.75-20.09-6.42-30.56-5.65
			c-6.75-1.65-11.94-4.49-19.84-6.63c-4.07-1.1-8.11-2.22-11.27-3.83C154.41,515.77,150.42,513.23,149.97,510.18z M183.38,528.18
			c1.63,0.32,1.18,1.33,2.15,1.87c3.29,0.63,4.57,1.93,6.59,2.98c5,1.96,16.1,2.33,19.01,5.75c-2.95-1.44-5.67,1.13-8.78-0.54
			c-5.53,2.93-10.68,3.33-20.26-0.75c-2.04-0.87-3.86-2.89-5.87-3.79c-3.73-1.67-8.01-1.45-9.55-3.72
			C169.06,526.02,179.16,530.19,183.38,528.18z M179.62,501.31c1.35-0.61,1.95,0.29,4.11,0.36
			C183.19,503.1,180.82,501.68,179.62,501.31z M253.68,517.51c6.64,1.55,13.32,2.08,20.38,4.44c6.55,2.19,9.64,5.09,18.2,6.88
			c2.38,0.49,3.91-0.35,7.14,0.13c1.68,0.25,3.31,0.85,4.85,1.27c1.67-0.66,3.22-1.5,4.22-3.19c1.89-0.47,3.85-0.85,5.65-1.51
			c0.41-0.14,1.03-0.4,1.51-0.62c0.51-0.24,1.01-0.5,1.48-0.78c0.95-0.57,1.82-1.25,2.59-2.08c-0.1,1.41-1.32,3.22-2.88,5.1
			c-0.76,0.88-1.57,1.83-2.37,2.76c-0.83,0.92-1.65,1.82-2.37,2.62c-2.51,0.96-4.99,1.94-7.46,2.95c-4.44-1.11-8.83-2.2-13.19-3.29
			c-4.5-1.13-8.94-2.29-13.28-3.59c-8.7-2.59-17.02-5.7-24.71-10.13L253.68,517.51z M345.31,510.77c-0.08-0.47,1.36-0.68,1.16-1.18
			c5.21-0.95,8.46-3.99,11.98-5.64c0.84-0.39,1.78-0.55,2.79-0.71c0.83-0.08,1.68-0.15,2.58-0.46c1.19-0.41,2.31-1.32,3.36-1.91
			c1.06-0.59,2.07-0.88,3.29-0.14c0.91-1.49,3.84-2.04,5.87-3.1c0.14-0.88,0.18-1.78-0.01-2.69c0.94,0.78,1.29,3.29,2.04,4.44
			c0.1,0.19,0.27,0.35,0.55,0.48c0.24,0.1,0.53,0.04,0.88-0.22c-0.27-1.6-1.58-2.61-1.98-4.04c0.54-2.51,1.49-3.81,3.12-3.2
			c0.53,2.06,0.36,5.46-0.22,9c-3.73,1.95-8.51,3.69-11.51,4.02c-1.26,1.1-2.69,1.73-4.18,2.18c-0.37,0.11-0.75,0.21-1.13,0.31
			c-0.4,0.1-0.81,0.2-1.23,0.3c-0.87,0.21-1.77,0.43-2.71,0.68c0.04,0.73,0.91,0.29,1.66,0.02c-3.78,3.21-10.31,0.41-14.74,2.94
			C345.98,512.03,346.32,510.45,345.31,510.77z M379.77,490.39c0.38-0.75,0.95-1,1.4-1.62c0.82,0.57,1.14,1.52,0.95,2.85
			C381.21,492.51,380.48,491.41,379.77,490.39z M371.66,462.97c1.63-7.14,2.76-14.58,4.04-21.53c0.92-4.98,2.49-10.61,3.9-16.29
			c0.71-2.84,1.37-5.69,1.9-8.48c0.26-1.39,0.49-2.77,0.68-4.13l0.03-0.25c0.01-0.07,0-0.08,0-0.13l-0.01-0.22l-0.04-0.42
			c-0.03-0.28-0.07-0.55-0.13-0.82c0.55-0.67,1.28-1.89,1.62-3.11c0.34-1.21,0.27-2.36-0.85-2.65l0.06-0.14
			c-0.59-1.24-1.86-2.34-3.15-3.19c-0.65-0.43-1.31-0.8-1.93-1.13l-0.46-0.24l-0.22-0.12l-0.11-0.06c-0.05-0.03-0.05-0.01-0.15-0.11
			c-0.64-0.62-1.26-1.25-1.86-1.87c-4.93-8.18-13.03-15.14-18.01-24.64c-1.12-2.14-1.01-4.45-2.15-6.64c-0.99-1.91-2.86-3.75-4-5.9
			c-0.41-0.78-0.76-1.58-1.09-2.41c-0.15-0.4-0.34-0.85-0.45-1.21l-0.02-0.67c-0.03-0.91-0.11-1.86-0.41-2.65
			c-0.29-0.73-1.15-1.13-1.4-1.88c-0.17-0.5,0.2-1.5,0.07-2.07c-0.05-0.24-0.13-0.46-0.21-0.67c-1.06-0.61-2.58-0.65-3.22-1.79
			c-1.16-0.03-2.23-0.11-3.28-0.24l-0.78-0.1l-1.51-0.27c-1.01-0.19-2.03-0.38-3.06-0.57c-4.12-0.78-8.43-1.62-13.41-2.31
			c4.77-0.78,9.85-1.23,11.94-4.66c2.48,0.5,4.89,0.89,7.29,1.35c1.71,0.31,3.25,0.67,4.79,1.29c1.78,0.73,2.43,1.29,4.79,1.79
			c0.27,0.35,0.64,0.81,1.1,1.34c1.11,1.26,2.62,2.01,3.68,3.31c0.71,0.87,1.33,1.75,1.98,2.76c0.93,1.38,1.83,2.79,2.72,4.21
			c1.78,2.82,3.53,5.65,5.46,8.24c3.3,4.42,7.65,8.03,8.87,12.42c2.98,3.3,5.67,7.48,8.48,11.37c0.7,0.97,1.41,1.93,2.14,2.85
			c0.36,0.46,0.73,0.91,1.1,1.35l0.56,0.65c0.2,0.23,0.28,0.29,0.43,0.44c1.06,1.03,2.24,1.91,3.71,2.61
			c0.9,2.62,3.02,4.63,5.18,6.74c-0.08,1.34-0.16,2.67-0.44,3.93c-2.03,1.83-4.18,3.63-5.79,5.46c-0.4,0.46-0.78,0.92-1.11,1.4
			c-0.17,0.24-0.32,0.48-0.47,0.73c-0.04,0.07-0.07,0.11-0.11,0.2l-0.14,0.34c-0.09,0.23-0.18,0.46-0.27,0.69
			c-0.7,1.87-1.22,3.93-1.51,6.19c-0.91,7.32,3.12,12.75,3.33,18.65c-1.99,2.69-0.81,5.31-1.78,8.47c-1.46,4.75-5,9.68-5.56,16.96
			c-3.01-1.78-5.45-2.38-7.52-4.5C373.71,461.07,373.12,463.32,371.66,462.97z M318.57,343.3c-0.32,0.71-1.05,1.01-0.98,2.1
			c-2.35-1.76-5.86-0.58-8.29-0.16c-7.49-1.27-13.44-1.04-20.85-2.24c-1.45-0.72-2.32-1.66-3.63-2.44
			c-5.06-1.19-10.03-2.73-14.77-3.88c-5.14-1.25-10.7-1.63-15.54-2.73c-5.38-1.23-10.32-4.83-15.33-3.67
			c-1.81-0.56-3.83-1.34-5.9-2.12l-1.55-0.58l-0.78-0.28l-0.38-0.14l-0.16-0.08c-0.42-0.23-0.85-0.44-1.27-0.59
			c-0.4-0.07-0.79-0.1-1.16-0.07l-0.27,0.03c-0.06,0.01-0.06,0.01-0.16,0.02l-0.3,0.02c-0.4,0.04-0.79,0.09-1.16,0.16
			c-2.25-0.95-5.32-1.35-8.56-1.72c-0.81-0.09-1.63-0.19-2.46-0.28c-0.77-0.09-1.86-0.21-2.04-0.3c-0.76-0.2-1.53-0.47-2.29-0.86
			c-0.5,0.09-0.97,0.21-1.4,0.35c-1.04,0.84-1.9,1.74-2.66,2.59l-0.28,0.32l-0.14,0.16l-0.07,0.08l-0.18,0.12l-1.42,0.96
			c-0.95,0.63-1.91,1.25-2.89,1.84c-3.92,2.37-8.24,4.34-14.21,5.32c3.49-3.46,10.44-4.68,12.63-8.15c1.18-0.33,2.27-0.81,3.28-1.39
			c0.51-0.29,1-0.6,1.47-0.92l0.34-0.24l0.15-0.17l0.3-0.36c0.79-0.98,1.57-2.12,2.35-2.84c0.22-0.21,0.47-0.4,0.74-0.6
			c1.37-0.34,3.05-0.35,4.53-0.84c1.81-0.45,3.23-0.8,4.9-1.21c1.74-0.39,3.74-0.67,6.67-0.62c0.54,0.02,1.08,0.03,1.61,0.05
			c0.51,0.02,1.02,0.05,1.54,0.07c0.69,0.04,1.4,0.07,2.17,0.09c0.08,0.02,0.19,0.04,0.3,0.06c0.42,0.08,0.84,0.19,1.26,0.33
			c0.53,0.18,1.07,0.36,1.6,0.54c1.32,0.45,2.64,0.96,3.92,1.47c2.57,1.01,5.01,1.97,7.15,2.36c1.17,0.21,2.49-0.17,3.62,0.13
			c2.66,0.71,5.62,2.83,8.6,3.53c0.45,0.11,2.14-0.24,2.62-0.08c1.45,0.45,2.83,1.7,4.19,2.23c9.25,3.59,22.32,5.7,34.01,8.74
			c2.38,0.62,4.43,1.73,6.82,2.15c1.61,0.28,3.5,0.01,5.11,0.45C312.65,340.87,315,343.46,318.57,343.3z M210.97,332.53
			c-0.05-0.01-0.09,0-0.13,0.02c-0.19,0.17-0.08,0.51-0.38,0.13c-0.24-0.78,0-1.18,0.23-1C210.82,331.81,210.93,332.1,210.97,332.53
			z"/>
		<path class="st2" d="M334.86,553.45c-0.9,0.58-1.26,1.25-1.98,1.86c-1.29-0.04-2.86,0.93-4.41,1.79c-0.2,0.11-0.39,0.21-0.58,0.32
			l-0.14,0.08l-0.24,0.11l-0.49,0.23c-0.65,0.29-1.28,0.56-1.89,0.77c-1.21,0.43-2.3,0.66-3.15,0.51c2.4-1.08,4.65-2.09,6.82-3.07
			c1.48-0.67,2.91-1.3,4.34-1.91c2.85-1.22,5.67-2.36,8.77-3.6C341.38,552.11,335.22,554.06,334.86,553.45z"/>
		<path class="st2" d="M346.98,549.5c-1.71,0.62-1.35,1.6-2.92,2.25c0.21-1.25,2.32-2.17,2.43-3.44
			C347.73,547.88,346.06,549.09,346.98,549.5z"/>
		<path class="st2" d="M183.21,292.85c-1.69,2.45-7.99,4.04-10.62,6.31C174.99,296.27,179.98,295.2,183.21,292.85z"/>
	</g>
</g>
<g>
	<path class="st3" d="M117.89,471.21c0,1.86,1.48,2.82,4.45,2.88c2.97,0.06,5.95-0.59,8.95-1.95c3-1.36,5.98-3.09,8.95-5.2
		c2.97-2.1,5.85-4.47,8.63-7.1c2.78-2.63,5.38-5.24,7.79-7.84c2.41-2.6,4.58-5.04,6.5-7.33l4.82-5.75l2.04,1.58l-4.83,5.57
		c-17.26,20.47-31.76,30.71-43.52,30.71c-3.4,0-5.95-0.68-7.66-2.04c-1.7-1.36-2.55-2.84-2.55-4.45c0-1.61,0.08-2.94,0.23-3.99
		c0.16-1.05,0.48-2.21,0.97-3.48c0.5-1.27,1.22-2.77,2.18-4.5c0.96-1.73,2.24-3.83,3.85-6.31l14.47-20.88l23.94-33.68h-7.33
		c-1.86,0-2.78-0.45-2.78-1.35c0-0.9,1.17-1.35,3.53-1.35H159l17.17-24.12c4.33,0.68,8.63,0.68,12.9,0l-17.91,24.12h23.94
		c1.73,0,2.6,0.45,2.6,1.35c0,0.9-0.77,1.35-2.32,1.35h-26.26l-38.41,52.24c-6.62,9.34-10.41,15.09-11.37,17.26
		C118.37,469.11,117.89,470.53,117.89,471.21z"/>
	<path class="st3" d="M204.37,476.78c-6.19,0-9.28-1.92-9.28-5.75c0-3.15,1.79-7.11,5.38-11.88l5.85-7.42l-0.93-0.37
		c-10.39,12.8-20.2,20.85-29.41,24.12c-2.54,0.87-4.73,1.3-6.59,1.3c-7.61,0-11.41-4.05-11.41-12.16c0-9.53,3.8-18.62,11.41-27.28
		c11.26-13.11,22.58-20.88,33.96-23.29c3.4-0.68,6.31-1.02,8.72-1.02s4.31,0.17,5.71,0.51c1.39,0.34,2.61,0.82,3.67,1.44
		c2.23,1.42,3.34,3.17,3.34,5.24c0,2.07-0.37,4.04-1.11,5.89l9.09-11.23c1.67,0.5,3.22,0.74,4.64,0.74c3.65,0,6.28-0.12,7.89-0.37
		l-31.27,37.67c-7.42,8.66-11.13,14.75-11.13,18.28c0,1.98,1.17,2.97,3.53,2.97c2.35,0,5.06-0.71,8.12-2.13
		c3.06-1.42,6.11-3.25,9.14-5.47c3.03-2.23,5.98-4.7,8.86-7.42c2.88-2.72,5.54-5.38,7.98-7.98c2.44-2.6,4.59-5.01,6.45-7.24
		l4.45-5.01l1.95,1.58l-4.73,5.38C230.81,466.48,216.06,476.78,204.37,476.78z M178.67,443.37c-8.72,10.58-13.08,19.24-13.08,25.98
		c0,3.09,1.39,4.64,4.18,4.64c9.03,0,22.05-9.99,39.06-29.97l7.79-9.37c3.71-5.63,5.57-9.71,5.57-12.25c0-4.33-2.17-6.49-6.5-6.49
		c-5.88,0-14.32,5.01-25.33,15.03C186.59,434.41,182.69,438.55,178.67,443.37z"/>
	<path class="st3" d="M286.62,468.56c-3.93,2.51-8.17,4.56-12.71,6.17c-4.55,1.61-8.86,2.41-12.94,2.41s-7.19-0.42-9.33-1.25
		c-2.13-0.83-3.88-2-5.24-3.48c-5.81-6.31-5.78-15.62,0.09-27.93c2.54-5.44,6.37-10.41,11.51-14.89c5.13-4.48,9.65-7.84,13.55-10.07
		c7.55-4.33,14.63-6.5,21.25-6.5c6.56,0,9.99,2.04,10.3,6.12c0.43,6.62-7.61,13.83-24.12,21.62c-6.06,2.85-13.7,5.78-22.92,8.81
		c-3.65,5.94-5.47,10.78-5.47,14.52c0,3.74,0.97,6.4,2.92,7.98c1.95,1.58,4.79,2.37,8.54,2.37c3.74,0,7.79-0.8,12.15-2.41
		c4.36-1.61,8.44-3.65,12.25-6.12c3.8-2.47,7.25-5.16,10.34-8.07c3.09-2.91,5.83-5.69,8.21-8.35c2.38-2.66,4.33-4.96,5.85-6.91
		c1.51-1.95,2.55-3.17,3.11-3.67l1.95,1.58c-0.8,0.68-2.03,2.07-3.67,4.17c-1.64,2.1-3.71,4.5-6.22,7.19
		c-2.5,2.69-5.38,5.52-8.63,8.49C294.14,463.32,290.55,466.06,286.62,468.56z M258.19,446.34c18.68-6.56,30.71-13.08,36.09-19.58
		c1.79-2.16,2.69-4.27,2.69-6.31c0-3.46-1.61-5.2-4.82-5.2c-5.69,0-12.8,4.98-21.34,14.94
		C264.87,437.13,260.66,442.51,258.19,446.34z"/>
	<path class="st3" d="M302.72,474.83c-1.67-0.31-3.53-0.46-5.57-0.46c-3.53,0-6.43,0.31-8.72,0.93L391.15,328.6
		c4.14,0.62,8.44,0.62,12.9,0L312,456.36l0.46,1.02c4.7-5.44,9.06-10.27,13.08-14.47l11.04-11.13c6.31-6.12,11.41-10.45,15.31-12.99
		c5.88-3.83,11.44-5.75,16.7-5.75c5.5,0,8.97,1.98,10.39,5.94c2.78,7.67-5.91,22.33-26.07,43.98l-3.62,3.99
		c-1.98,2.23-2.97,3.93-2.97,5.1c0,0.62,0.68,1.13,2.04,1.53c1.36,0.4,3.28,0.6,5.75,0.6c2.47,0,5.38-0.79,8.72-2.37
		c3.34-1.58,6.59-3.57,9.74-5.99c3.15-2.41,6.15-5.07,9-7.98c2.84-2.91,5.4-5.66,7.66-8.26c2.26-2.6,4.16-4.89,5.71-6.87
		c1.55-1.98,2.6-3.25,3.15-3.8l2.04,1.58c-0.62,0.68-1.75,2.04-3.39,4.08c-1.64,2.04-3.65,4.41-6.03,7.1
		c-2.38,2.69-5.07,5.52-8.07,8.49c-3,2.97-6.2,5.66-9.6,8.07c-7.79,5.69-14.88,8.54-21.25,8.54c-5.07,0-8.81-1.39-11.23-4.18
		c-0.74-0.87-1.11-1.89-1.11-3.06c0-1.17,0.17-2.52,0.51-4.04c0.34-1.52,1.19-3.45,2.55-5.8c3.15-5.32,7.33-10.9,12.53-16.75
		c5.2-5.85,8.63-9.82,10.3-11.92c1.67-2.1,3-3.93,3.99-5.47c1.86-2.97,2.78-5.26,2.78-6.87c0-2.23-1.45-3.34-4.36-3.34
		c-3.9,0-8.38,1.73-13.45,5.2c-12.31,8.23-26.66,22.55-43.05,42.96L302.72,474.83z"/>
	<path class="st3" d="M413.32,413.77c0.62,0.12,1.79,0.19,3.53,0.19c2.16,0,4.02,0,5.57,0c2.72,0,4.51-0.06,5.38-0.19l-46.95,60.59
		l-13.83,17.07c15.9-7.67,28.15-14.85,36.74-21.53c6.62-5.13,12.34-10.44,17.17-15.91c4.83-5.47,9.06-10.5,12.71-15.08l1.86,1.58
		c-11.26,14.1-21.96,24.96-32.1,32.57c-7.11,5.26-14.1,9.68-20.97,13.27l-18.84,9.28c-12.87,15.46-22.51,26.13-28.95,32.01
		c-6.43,5.88-11.49,10.07-15.17,12.57c-3.68,2.5-7.19,4.44-10.53,5.8c-5.81,2.41-12.49,3.62-20.04,3.62c-3.9,0-6.5-1.33-7.79-3.99
		c-0.31-0.74-0.46-1.93-0.46-3.57c0-1.64,1.05-3.93,3.15-6.87c2.1-2.94,5.75-6.2,10.95-9.79c10.52-7.3,28.58-16.27,54.19-26.91
		l35.72-45.09c14.72-19.36,23.17-30.63,25.33-33.82C412.15,416.39,413.26,414.46,413.32,413.77z M345.78,502.29
		c-22.7,9.71-38.63,17.6-47.78,23.66c-9.53,6.31-14.29,12.12-14.29,17.44c0,0.68,0.42,1.47,1.25,2.37c0.83,0.9,2.3,1.35,4.41,1.35
		c2.1,0,4.24-0.22,6.4-0.65c2.17-0.43,4.44-1.22,6.82-2.37c2.38-1.14,4.96-2.75,7.75-4.82c2.78-2.07,5.91-4.76,9.37-8.07
		c3.47-3.31,7.33-7.35,11.6-12.11L345.78,502.29z M441.48,392.71c-0.9,0.8-1.9,1.44-3.01,1.9c-1.11,0.46-2.37,0.7-3.76,0.7
		c-1.39,0-2.61-0.54-3.67-1.62c-1.05-1.08-1.58-2.3-1.58-3.67c0-1.36,0.25-2.57,0.74-3.62c0.5-1.05,1.17-1.98,2.04-2.78
		c1.92-1.86,3.93-2.78,6.03-2.78c2.1,0,3.65,0.57,4.64,1.72c0.99,1.15,1.48,2.4,1.48,3.76c0,1.36-0.26,2.57-0.79,3.62
		C443.09,390.98,442.38,391.91,441.48,392.71z"/>
</g>
</svg>
