<?xml version="1.0" encoding="utf-8"?>
<!-- Generator: Adobe Illustrator 25.4.1, SVG Export Plug-In . SVG Version: 6.00 Build 0)  -->
<svg version="1.1" id="Layer_1" xmlns="http://www.w3.org/2000/svg" xmlns:xlink="http://www.w3.org/1999/xlink" x="0px" y="0px"
	 viewBox="0 0 595.28 841.89" style="enable-background:new 0 0 595.28 841.89;" xml:space="preserve">
<style type="text/css">
	.st0{fill:#429435;stroke:#429435;stroke-miterlimit:10;}
</style>
<g transform="translate(0.000000,600.000000) scale(0.100000,-0.100000)">
	<path class="st0" d="M2937.23,3880.42c-99-31.56-182.21-81.78-256.82-152.08c-53.09-50.22-96.13-74.61-156.39-91.82
		c-208.04-60.26-351.51-167.87-418.95-312.78c-45.91-97.56-47.35-220.95-5.74-368.73c41.61-149.21,31.56-232.43-40.17-345.78
		c-153.52-243.91-166.43-302.73-99-444.77c20.09-43.04,37.3-99,37.3-123.39c0-24.39-31.56-109.04-70.3-187.95
		c-87.52-179.34-107.61-263.99-99-437.6c4.3-123.39,11.48-147.78,58.82-245.34c63.13-126.26,223.82-307.04,362.99-406.04
		c124.82-88.95,338.6-186.52,503.6-231c126.26-34.43,167.87-37.3,398.86-38.74c282.65-1.43,397.43,18.65,612.64,106.17
		c384.51,156.39,682.94,477.77,766.16,826.42c21.52,91.82,22.96,106.17,1.43,177.91c-12.91,44.48-55.96,134.87-97.56,200.87
		c-124.82,206.6-132,251.08-84.65,499.29c34.43,177.91,35.87,232.43,5.74,334.3c-35.87,117.65-107.61,215.21-228.13,305.6
		c-117.65,87.52-139.17,121.95-199.43,302.73c-88.95,271.17-259.69,482.08-474.9,588.25c-111.91,55.96-117.65,57.39-286.95,60.26
		C3053.45,3899.08,2974.53,3893.34,2937.23,3880.42z M3287.31,3864.64c276.91-66,489.25-281.21,606.9-614.08
		c70.3-199.43,97.56-241.04,223.82-340.04c117.65-91.82,185.08-185.08,212.34-289.82c25.83-100.43,25.83-142.04-8.61-315.65
		c-48.78-251.08-41.61-288.39,88.96-517.95c110.48-193.69,123.39-252.52,83.22-385.95c-41.61-137.74-111.91-269.73-205.17-384.51
		l-74.61-93.26l-4.3,54.52c-2.87,28.7,10.04,121.95,27.26,208.04c34.43,176.47,33,354.38-5.74,427.56
		c-12.91,24.39-55.96,84.65-97.56,133.43c-41.61,50.22-81.78,116.22-93.26,154.95c-18.65,60.26-17.22,77.48,10.04,189.39
		c55.96,231,41.61,304.17-99,487.82c-51.65,67.43-109.04,149.21-127.69,180.78c-17.22,31.56-33,51.65-33,45.91
		c0-25.83,51.65-109.04,130.56-213.78c147.78-192.26,165-259.69,113.35-456.25c-53.09-203.74-40.17-261.13,99-437.6
		c34.43-43.04,70.3-103.3,81.78-132c27.26-77.48,24.39-209.47-8.61-370.17c-15.78-76.04-28.7-176.47-28.7-222.39v-83.22
		l-96.13-74.61c-134.87-101.87-357.25-208.04-526.56-251.08c-77.48-20.09-146.34-35.87-153.52-35.87
		c-25.83,0-104.74,81.78-129.13,136.3c-33,71.74-34.43,110.48-4.3,173.61c31.56,66,81.78,99,259.69,172.17
		c284.08,114.78,324.25,203.74,226.69,493.56c-60.26,179.34-63.13,251.08-15.78,441.9c47.35,193.69,53.09,246.78,37.3,332.86
		c-18.65,96.13-50.22,139.17-152.08,200.87c-110.48,66-121.95,104.74-78.91,248.21c48.78,166.43,35.87,266.86-50.22,367.3
		c-76.04,88.95-166.43,119.08-378.78,126.26c-256.82,8.61-268.3,11.48-279.78,63.13c-5.74,22.96-41.61,76.04-81.78,117.65
		c-71.74,74.61-70.3,63.13,8.61-47.35c48.78-67.43,64.56-173.61,38.74-266.86c-21.52-81.78-107.61-205.17-249.65-361.56
		c-187.95-206.6-253.95-351.52-253.95-562.42c0-192.26,71.74-387.38,195.13-527.99c93.26-106.17,121.95-94.69,35.87,12.91
		c-162.13,200.87-228.13,417.51-193.69,632.73l10.04,54.52l47.35-43.04c55.96-47.35,104.74-64.56,153.52-51.65
		c30.13,7.17,38.74-1.43,68.87-66c35.87-78.91,123.39-200.87,177.91-248.21c28.7-25.83,34.43-50.22,48.78-222.39
		c27.26-309.91,12.91-329.99-341.47-472.03l-192.26-76.04l-43.04,24.39c-57.39,34.43-156.39,31.56-245.34-5.74
		c-37.3-17.22-74.61-30.13-81.78-30.13c-38.74,0-87.52,182.21-87.52,324.25c1.43,132,18.65,196.56,99,360.12
		c84.65,172.17,91.82,232.43,40.17,335.73c-64.56,126.26-48.78,212.34,67.43,383.08c103.3,150.65,117.65,239.6,67.43,418.95
		c-51.65,185.08-33,309.91,68.87,441.9c54.52,71.74,186.52,150.65,314.21,187.95c93.26,28.7,126.26,45.91,187.95,104.74
		c41.61,38.74,116.22,88.95,166.43,113.35C3014.71,3886.16,3133.79,3900.51,3287.31,3864.64z M3105.1,3198.92
		c229.56-14.35,304.17-41.61,371.6-134.87c53.09-74.61,53.09-90.39-7.17-90.39c-60.26,0-123.39-40.17-123.39-77.48
		c0-33,25.83-38.74,37.3-8.61c8.61,24.39,71.74,48.78,117.65,47.35c44.48-2.87,51.65-38.74,25.83-140.61
		c-12.91-47.35-22.96-91.82-24.39-96.13c-1.43-5.74-5.74,5.74-11.48,25.83c-5.74,22.96-20.09,35.87-37.3,35.87
		c-25.83,0-28.7-11.48-33-106.17l-4.3-106.17l35.87,7.17c27.26,5.74,43.04-1.43,58.82-25.83c11.48-18.65,47.35-47.35,77.48-61.69
		c63.13-33,144.91-120.52,144.91-154.95c0-45.91-120.52-225.26-223.82-332.86c-136.3-143.48-208.04-180.78-350.08-180.78
		c-140.61,0-218.08,37.3-352.95,170.74c-123.39,123.39-218.08,301.3-271.17,515.08l-35.87,142.04l130.56,144.91
		c146.35,165,200.87,265.43,210.91,378.78c5.74,71.74,8.61,77.48,37.3,70.3C2894.19,3214.7,2997.49,3206.09,3105.1,3198.92z
		 M2512.54,2455.71c54.52-206.6,54.52-190.82,1.43-190.82c-34.43,0-60.26,14.35-101.87,55.96c-51.65,51.65-54.52,58.82-41.61,96.13
		c21.52,57.39,84.65,163.56,97.56,163.56C2473.8,2580.54,2493.89,2524.58,2512.54,2455.71z M3710.56,1982.24
		c-53.09-206.6-53.09-335.73,0-469.16c21.52-54.52,35.87-101.87,31.56-104.74c-14.35-14.35-114.78,17.22-152.08,47.35
		c-44.48,38.74-61.69,94.69-86.09,302.73l-15.78,130.56l87.52,106.17c48.78,57.39,106.17,134.87,127.69,172.17l37.3,67.43l4.3-48.78
		C3747.87,2158.72,3732.08,2066.89,3710.56,1982.24z M3479.57,1711.07c14.35-235.3,57.39-301.3,213.78-329.99
		c64.56-12.91,83.22-30.13,83.22-80.35c0-116.22-84.65-202.3-265.43-268.3c-189.39-68.87-251.08-117.65-292.69-232.43
		c-17.22-47.35-143.48-113.35-213.78-113.35c-40.17,0-58.82,11.48-94.69,51.65c-127.69,149.21-146.34,163.56-205.17,163.56
		c-30.13,0-93.26-12.91-139.17-30.13c-71.74-24.39-91.82-25.83-126.26-11.48c-22.96,8.61-47.35,27.26-54.52,40.17
		c-21.52,43.04-58.82,220.95-47.35,232.43c7.17,5.74,86.09,40.17,176.47,77.48c370.17,150.65,388.82,175.04,358.69,473.47
		c-10.04,91.82-15.78,169.3-11.48,172.17c2.87,2.87,43.04-12.91,90.39-37.3c153.52-76.04,308.47-70.3,437.6,15.78
		c34.43,22.96,67.43,38.74,71.74,35.87C3466.65,1867.46,3475.26,1795.72,3479.57,1711.07z"/>
	<path class="st0" d="M3779.43,2853.14c0-20.09,2.87-27.26,7.17-17.22c2.87,8.61,2.87,25.83,0,35.87
		C3782.3,2880.4,3779.43,2873.23,3779.43,2853.14z"/>
	<path class="st0" d="M2815.28,2929.18c-35.87-12.91-86.09-64.56-86.09-87.52c0-12.91,14.35-8.61,44.48,17.22
		c54.52,47.35,86.09,47.35,139.17,1.43c50.22-43.04,74.61-45.91,74.61-10.04C2987.45,2906.23,2879.84,2955.01,2815.28,2929.18z"/>
	<path class="st0" d="M2854.01,2757.01c-5.74-4.3-10.04-53.09-10.04-107.61c0-94.69,1.43-99,33-94.69
		c27.26,4.3,31.56,14.35,35.87,87.52C2917.14,2736.92,2888.45,2792.88,2854.01,2757.01z"/>
	<path class="st0" d="M3102.23,2557.58c0-17.22,14.35-47.35,30.13-68.87c25.83-31.56,40.17-38.74,83.22-34.43
		c48.78,4.3,51.65,1.43,55.96-41.61c2.87-35.87-4.3-55.96-33-84.65c-20.09-20.09-34.43-40.17-30.13-44.48
		c4.3-4.3,27.26,12.91,51.65,37.3c37.3,35.87,44.48,53.09,40.17,97.56c-4.3,53.09-5.74,54.52-63.13,55.96
		c-73.17,1.43-88.95,11.48-114.78,68.87C3107.97,2579.1,3103.66,2581.97,3102.23,2557.58z"/>
	<path class="st0" d="M3303.09,2175.94c-80.35-43.04-143.48-47.35-242.47-17.22c-22.96,7.17-31.56,5.74-24.39-5.74
		c4.3-8.61,40.17-21.52,78.91-30.13c84.65-18.65,203.74,7.17,249.65,54.52C3410.7,2221.85,3390.61,2221.85,3303.09,2175.94z"/>
	<path class="st0" d="M3255.75,2033.89c-15.78-8.61-45.91-11.48-68.87-7.17c-27.26,4.3-40.17,2.87-34.43-5.74
		c14.35-21.52,101.87-17.22,121.95,7.17C3295.92,2053.98,3291.61,2053.98,3255.75,2033.89z"/>
</g>
</svg>
