<?xml version="1.0" encoding="UTF-8"?>
<svg width="100px" height="19px" viewBox="0 0 100 19" version="1.1" xmlns="http://www.w3.org/2000/svg" xmlns:xlink="http://www.w3.org/1999/xlink">
    <!-- Generator: Sketch 41 (35326) - http://www.bohemiancoding.com/sketch -->
    <title>nespresso_logo</title>
    <desc>Created with Sketch.</desc>
    <defs></defs>
    <g id="Page-1" stroke="none" stroke-width="1" fill="none" fill-rule="evenodd">
        <g id="nespresso_logo" fill="#FFFFFF">
            <path d="M90.0951771,3.02288163 C88.606288,3.02288163 84.0155655,3.54859371 84.0155655,9.46291035 C84.0155655,15.771511 88.9785234,16.0343671 89.9711045,16.0343671 C90.5914676,16.0343671 92.8248101,15.9029391 94.3136817,14.3257842 C95.4303529,13.1429135 95.9266434,11.5657772 95.9266434,9.46289174 C96.0507161,3.41714708 91.5840662,3.02286302 90.0951771,3.02286302 L90.0951771,3.02288163 Z M91.9562841,13.5372161 C91.5840662,13.8000722 91.0877757,14.1943562 90.2192497,14.1943562 L90.0951771,14.1943562 C89.2266687,14.1943562 88.7303606,13.8000722 88.3581427,13.5372161 C87.4896343,12.748648 87.1173988,11.3029212 87.1173988,9.20005431 C87.1173988,5.25717655 88.9785059,4.60003646 90.0951771,4.60003646 L90.2192497,4.60003646 C91.335921,4.60003646 93.197028,5.25717655 93.197028,9.20005431 C93.197028,11.3029212 92.8248101,12.748648 91.9562841,13.5372161 Z M18.380494,18.005806 C17.2638228,17.6115219 15.650861,16.2972231 14.7823526,15.1143523 C13.6656814,13.6686255 10.8119933,9.72574777 10.8119933,9.72574777 C10.3157028,9.2000357 9.94348489,8.542877 9.4471768,7.88573691 C8.20643293,6.04572605 6.84163399,4.07428717 5.35274486,2.8914164 L5.35274486,16.0343485 L7.08977925,16.0343485 L7.08977925,9.20001709 L8.57866839,11.171456 C9.32310417,12.2228987 10.1916301,13.4057509 10.8119933,14.1943376 C11.3082838,14.7200497 12.4249551,16.1657765 12.797173,16.4286325 C14.4101347,18.0057873 16.8916049,18.9257835 19.3730926,18.9257835 C20.4897639,18.9257835 21.4823449,18.7943555 22.4749435,18.4000714 L22.4749435,18.2686434 C22.1027256,18.4000714 21.6064351,18.4000714 21.2341997,18.4000714 C20.3656912,18.6629274 19.3730926,18.4000714 18.380494,18.0057873 L18.380494,18.005806 Z M7.71014241,3.94287776 C8.82681365,5.38860457 11.8045743,9.33148233 11.8045743,9.33148233 C12.1767922,9.8571944 12.6730828,10.5143531 13.0453182,11.1714932 C14.2860621,13.0115041 15.650861,14.9829429 17.1397502,16.1658137 L17.1397502,3.02288163 L15.4027158,3.02288163 L15.4027158,9.85721301 L13.9138266,7.88577413 C13.1693908,6.70290336 12.4249375,5.65147922 11.6805017,4.8628925 C11.3082838,4.20575241 9.94346732,2.89145362 9.57124943,2.49716956 C8.0823603,0.920014736 5.47681749,1.86105945e-05 2.99532975,1.86105945e-05 C2.00273113,1.86105945e-05 1.01015009,0.131446629 0.0175514808,0.525730683 L0.0175514808,0.6571587 C0.389769372,0.525730683 0.886059893,0.525730683 1.25829535,0.525730683 C2.25089396,0.525730683 3.11940238,0.788586718 4.11200099,1.05144275 C5.22867223,1.44572681 6.84163399,2.7600256 7.71014241,3.94289637 L7.71014241,3.94287776 Z M73.3452139,9.72576638 C71.9803974,8.41146759 70.3674356,8.14861156 69.250782,7.36004345 C68.3822735,6.70290336 68.5063462,5.78288862 68.8785641,5.25717655 C69.8711627,3.94287776 71.980415,4.46860844 72.4767055,4.60003646 C73.0970686,4.73146448 73.3452139,4.8628925 73.9655946,5.25717655 L73.9655946,3.81144974 C71.4841244,3.02288163 67.6378202,2.36572293 66.1489486,4.99432051 C65.5285855,6.04576327 65.4045128,7.88577413 67.017457,9.06862629 C68.6304188,10.3829251 71.4841069,11.0400652 71.7322697,12.2229359 C71.980415,12.880076 71.7322697,13.4058067 71.3600518,13.8000908 C69.8711627,15.2458176 67.5137651,14.3258028 66.024876,13.6686628 L66.024876,15.2458176 C67.6378378,16.0343857 69.74709,16.1658137 71.4841244,15.7715297 C72.7248683,15.5086736 74.0896672,14.3258028 74.3378301,12.880076 C74.5859929,11.4343492 74.2137574,10.5143531 73.3452315,9.72576638 L73.3452139,9.72576638 Z M82.2785311,9.72576638 C80.9137146,8.41146759 79.3007529,8.14861156 78.1840992,7.36004345 C77.3155908,6.70290336 77.4396634,5.78288862 77.8118813,5.25717655 C78.8044799,4.07430578 80.7896596,4.60003646 81.2859501,4.73146448 C81.9063132,4.8628925 82.1544585,4.99432051 82.7748392,5.38860457 L82.7748392,3.81144974 C80.293369,3.02288163 76.4470648,2.36572293 74.9581932,4.99432051 C74.4619027,6.04576327 74.3378301,7.88577413 75.9507918,9.06862629 C77.5637536,10.3829251 80.4174417,11.0400652 80.6656045,12.2229359 C80.9137498,12.880076 80.6656045,13.4058067 80.2933866,13.8000908 C78.8044975,15.2458176 76.4470999,14.3258028 74.9582108,13.6686628 L74.9582108,15.2458176 C76.5711726,16.0343857 78.5563522,16.1658137 80.4174592,15.7715297 C81.6582031,15.5086736 83.023002,14.3258028 83.2711649,12.880076 C83.5193277,11.4343492 83.1470922,10.5143531 82.2785663,9.72576638 L82.2785311,9.72576638 Z M57.2156138,15.771511 L65.0322598,15.771511 L65.0322598,14.1943562 L59.9452293,14.1943562 L59.9452293,10.1200504 L64.0396612,10.1200504 L64.0396612,8.67432363 L59.9452293,8.67432363 L59.9452293,4.86287389 L65.0322598,4.86287389 L65.0322598,3.41714708 L57.2156138,3.41714708 L57.2156138,15.771511 Z M34.882312,9.72576638 C33.5174955,8.41146759 31.9045337,8.14861156 30.78788,7.36004345 C29.9193716,6.70290336 30.0434443,5.78288862 30.4156622,5.25717655 C31.4082608,4.07430578 33.3934404,4.60003646 33.8897309,4.73146448 C34.5100941,4.8628925 34.7582393,4.99432051 35.3786201,5.38860457 L35.3786201,3.81144974 C32.8971499,3.02288163 29.0508456,2.36572293 27.5619741,4.99432051 C27.0656836,6.04576327 26.8175383,7.88577413 28.5545727,9.06862629 C30.1675345,10.3829251 33.0212225,11.0400652 33.2693854,12.2229359 C33.5175306,12.880076 33.2693854,13.4058067 32.8971675,13.8000908 C31.4082783,15.2458176 29.0508808,14.3258028 27.5619917,13.6686628 L27.5619917,15.2458176 C29.1749534,16.0343857 31.2842057,16.1658137 33.0212401,15.7715297 C34.261984,15.5086736 35.6267829,14.3258028 35.8749457,12.880076 C35.9990184,11.4343492 35.7508731,10.5143531 34.8823471,9.72576638 L34.882312,9.72576638 Z M18.7527119,15.771511 L26.5693579,15.771511 L26.5693579,14.1943562 L21.4823274,14.1943562 L21.4823274,10.1200504 L25.5767593,10.1200504 L25.5767593,8.67432363 L21.4823274,8.67432363 L21.4823274,4.86287389 L26.5693579,4.86287389 L26.5693579,3.41714708 L18.7527119,3.41714708 L18.7527119,15.771511 Z M42.2026674,3.28573767 L37.1156369,3.28573767 L37.1156369,15.9029577 L39.7211797,15.9029577 L39.7211797,11.3029398 C39.7211797,11.3029398 43.8156116,11.5657959 45.0563555,9.85721301 C45.9248639,8.80577026 46.0489541,6.9657594 45.6767187,5.65147922 C45.0563555,3.94289637 43.691539,3.28575628 42.2026499,3.28575628 L42.2026674,3.28573767 Z M42.6989755,8.93719828 C41.9545398,9.72576638 40.7137959,9.72576638 39.7211973,9.59433837 L39.7211973,4.8628925 C39.7211973,4.8628925 41.9545222,4.33718043 42.8230482,5.6514606 C43.3193387,6.30860069 43.3193387,8.01718354 42.6989755,8.93719828 L42.6989755,8.93719828 Z M54.6100535,9.72576638 C55.4785619,8.67432363 55.6026521,6.9657594 55.2304166,5.52003259 C54.7341261,4.07430578 53.3693096,3.28573767 51.8804205,3.28573767 L46.7933899,3.28573767 L46.7933899,15.7715297 L49.3989327,15.7715297 L49.3989327,11.1715118 L50.6396766,11.1715118 L53.3693096,15.7715297 L56.3470879,15.7715297 L53.3693096,10.6457811 C53.7415275,10.3829251 54.3619082,10.120069 54.6100535,9.72578499 L54.6100535,9.72576638 Z M52.5008012,8.93719828 C51.7563654,9.72576638 50.5156215,9.59433837 49.5230229,9.59433837 L49.5230229,4.99432051 C49.5230229,4.99432051 51.6322752,4.46860844 52.6248738,5.78288862 C52.9970917,6.44002871 53.1211643,8.01718354 52.5008012,8.93719828 L52.5008012,8.93719828 Z M97.6636778,13.0115041 C96.7951694,13.0115041 96.1747887,13.6686441 96.1747887,14.5886589 C96.1747887,15.5086736 96.9192245,16.1658137 97.6636778,16.1658137 C98.4081136,16.1658137 99.152567,15.5086736 99.152567,14.5886589 C99.152567,13.6686441 98.4081312,13.0115041 97.6636778,13.0115041 Z M97.6636778,15.9029391 C96.9192421,15.9029391 96.2988613,15.245799 96.2988613,14.4572123 C96.2988613,13.6686255 96.9192245,13.0114854 97.6636778,13.0114854 C98.4081136,13.0114854 99.0284943,13.6686255 99.0284943,14.4572123 C98.9044217,15.3772084 98.2840586,15.9029391 97.6636778,15.9029391 Z M98.0358957,14.5886589 C98.0358957,14.5886589 98.284041,14.4572309 98.284041,14.1943748 C98.284041,13.9315188 98.0358957,13.6686628 97.7877505,13.6686628 L97.0433147,13.6686628 L97.0433147,15.3772456 L97.2914599,15.3772456 L97.2914599,14.7201055 L97.7877505,14.7201055 C98.0358957,14.7201055 98.1599684,14.8515335 98.1599684,15.1143896 L98.1599684,15.3772456 L98.4081136,15.3772456 C98.284041,15.2458176 98.284041,15.1143896 98.284041,14.8515335 C98.284041,14.5886775 98.1599684,14.5886775 98.0358957,14.5886775 L98.0358957,14.5886589 Z M97.6636778,14.4572309 L97.1673873,14.4572309 L97.1673873,13.9315188 L97.6636778,13.9315188 C97.7877505,13.9315188 97.9118231,13.9315188 97.9118231,14.1943748 C98.0358957,14.3258028 97.9118231,14.4572309 97.6636778,14.4572309 Z" id="Shape"></path>
        </g>
    </g>
</svg>